HIERARCHY
ROOT Hips
{
  OFFSET 48.13 95.1039 17.1629
  CHANNELS 6 Xposition Yposition Zposition Zrotation Xrotation Yrotation
  JOINT spine
  {
    OFFSET 0 7.96568 0.458067
    CHANNELS 3 Zrotation Xrotation Yrotation
    JOINT spine1
    {
      OFFSET 0 10.2431 0
      CHANNELS 3 Zrotation Xrotation Yrotation
      JOINT spine2
      {
        OFFSET 0 9.81475 0
        CHANNELS 3 Zrotation Xrotation Yrotation
        JOINT Neck
        {
          OFFSET 0 25.1986 1.20138
          CHANNELS 3 Zrotation Xrotation Yrotation
          JOINT Head
          {
            OFFSET 0 7.61315 0
            CHANNELS 3 Zrotation Xrotation Yrotation
            End Site
            {
              OFFSET 0 18.4281 -6.07732
            }
          }
        }
        JOINT RightShoulder
        {
          OFFSET -4.1327 10.5992 -0.575451
          CHANNELS 3 Zrotation Xrotation Yrotation
          JOINT RightArm
          {
            OFFSET 0 13.9018 0
            CHANNELS 3 Zrotation Xrotation Yrotation
            JOINT RightArmRoll
            {
              OFFSET 0 7.01788 0
              CHANNELS 3 Zrotation Xrotation Yrotation
              JOINT RightForeArm
              {
                OFFSET 0 20.4406 0
                CHANNELS 3 Zrotation Xrotation Yrotation
                JOINT RightForeArmRoll
                {
                  OFFSET 0 7.87515 0
                  CHANNELS 3 Zrotation Xrotation Yrotation
                  JOINT RightHand
                  {
                    OFFSET 0 15.8037 0
                    CHANNELS 3 Zrotation Xrotation Yrotation
                    End Site
                    {
                      OFFSET 0 0 0
                    }
                  }
                }
              }
            }
          }
        }
        JOINT LeftShoulder
        {
          OFFSET 4.1327 10.5992 -0.575451
          CHANNELS 3 Zrotation Xrotation Yrotation
          JOINT LeftArm
          {
            OFFSET 0 13.9018 0
            CHANNELS 3 Zrotation Xrotation Yrotation
            JOINT LeftArmRoll
            {
              OFFSET 0 7.01789 0
              CHANNELS 3 Zrotation Xrotation Yrotation
              JOINT LeftForeArm
              {
                OFFSET 0 20.4406 0
                CHANNELS 3 Zrotation Xrotation Yrotation
                JOINT LeftForeArmRoll
                {
                  OFFSET 0 7.87516 0
                  CHANNELS 3 Zrotation Xrotation Yrotation
                  JOINT LeftHand
                  {
                    OFFSET 0 15.8037 0
                    CHANNELS 3 Zrotation Xrotation Yrotation
                    End Site
                    {
                      OFFSET 0 0 0
                    }
                  }
                }
              }
            }
          }
        }
      }
    }
  }
  JOINT RightUpLeg
  {
    OFFSET -7.06048 -1.2947 -1.0861
    CHANNELS 3 Zrotation Xrotation Yrotation
    JOINT RightUpLegRoll
    {
      OFFSET 0 18.5308 0
      CHANNELS 3 Zrotation Xrotation Yrotation
      JOINT RightLeg
      {
        OFFSET 0 -22.9476 0
        CHANNELS 3 Zrotation Xrotation Yrotation
        JOINT RightLegRoll
        {
          OFFSET 0 23.0226 0
          CHANNELS 3 Zrotation Xrotation Yrotation
          JOINT RightFoot
          {
            OFFSET 0 19.1625 0
            CHANNELS 3 Zrotation Xrotation Yrotation
            JOINT RightToeBase
            {
              OFFSET 0 16.0188 0
              CHANNELS 3 Zrotation Xrotation Yrotation
              End Site
              {
                OFFSET 0.00678979 7.75782 -0.894206
              }
            }
          }
        }
      }
    }
  }
  JOINT LeftUpLeg
  {
    OFFSET 7.06048 -1.2947 -1.0861
    CHANNELS 3 Zrotation Xrotation Yrotation
    JOINT LeftUpLegRoll
    {
      OFFSET 0 18.5309 0
      CHANNELS 3 Zrotation Xrotation Yrotation
      JOINT LeftLeg
      {
        OFFSET 0 22.9475 0
        CHANNELS 3 Zrotation Xrotation Yrotation
        JOINT LeftLegRoll
        {
          OFFSET 0 23.2355 0
          CHANNELS 3 Zrotation Xrotation Yrotation
          JOINT LeftFoot
          {
            OFFSET 0 18.9496 0
            CHANNELS 3 Zrotation Xrotation Yrotation
            JOINT LeftToeBase
            {
              OFFSET 0 16.0188 0
              CHANNELS 3 Zrotation Xrotation Yrotation
              End Site
              {
                OFFSET -0.0304289 7.75782 -0.894206
              }
            }
          }
        }
      }
    }
  }
}
MOTION
Frames: 10
Frame Time: 0.00208333
49.9296 95.6123 15.7283 -1.76917 -1.33346 2.44787 0.459783 -1.91143 -0.0179788 0.904972 0.178245 -0.0756998 0.906288 1.82319 -0.0908661 0.600228 20.6943 -1.30559 -0.192993 -2.99261 -1.13363 69.4043 -1.26507 -1.89084 101.255 18.6845 20.3877 5.20787e-006 -1.12346e-006 1.93286e-006 4.43185 0.0359148 -0.110274 -3.14184e-006 -3.70382e-006 -3.00897 8.02967 -4.95141 0.697653 -69.5712 -0.0502281 1.31153 -102.391 16.2244 -21.9614 1.59875e-006 2.23114e-006 -2.89788e-006 -1.26324 4.51171 -0.376268 9.03013e-006 5.52089e-007 3.00309 -8.03014 -4.9514 -0.697657 177.378 -2.3337 -2.90728 180 7.01526e-015 178.834 177.679 4.25657 179.581 -3.00586e-007 -2.57474e-006 0.0500162 -18.8369 67.912 19.4446 8.14479 25.4038 -3.25576 -172.067 0.805264 -1.1559 4.54188e-006 -4.6773e-006 -1.18055 -2.2923 -10.1334 0.0814625 3.15628e-006 -4.48877e-006 -0.246164 21.5274 70.8947 -22.319 -8.1307 25.3176 3.37725 
49.9296 95.6167 15.7273 -1.76897 -1.33324 2.44711 0.459763 -1.91124 -0.0180524 0.905927 0.177645 -0.0761298 0.907241 1.82259 -0.0913117 0.589847 20.6956 -1.30248 -0.182355 -2.98024 -1.13259 69.3987 -1.25635 -1.88597 101.26 18.6787 20.3865 5.20787e-006 -1.12346e-006 1.93286e-006 4.43321 0.0359616 -0.110342 -3.14184e-006 -3.70382e-006 -3.00897 8.02967 -4.95141 0.697653 -69.5684 -0.0510425 1.31144 -102.396 16.2225 -21.958 1.59875e-006 2.23114e-006 -2.89788e-006 -1.2658 4.51063 -0.376083 9.03013e-006 5.52089e-007 3.00309 -8.03014 -4.9514 -0.697657 177.379 -2.33377 -2.90131 180 7.01526e-015 178.834 177.671 4.26103 179.582 -3.00586e-007 -2.57474e-006 0.0500162 -18.8357 67.9106 19.4439 8.14534 25.4117 -3.24519 -172.064 0.811495 -1.15966 4.54188e-006 -4.6773e-006 -1.18055 -2.29408 -10.1488 0.0813943 3.15628e-006 -4.48877e-006 -0.246547 21.5385 70.9044 -22.3308 -8.13063 25.3167 3.378 
49.9275 95.6212 15.7254 -1.7688 -1.33296 2.44633 0.45973 -1.91107 -0.0181235 0.906894 0.176991 -0.0765735 0.908207 1.82194 -0.0917714 0.579109 20.6966 -1.29917 -0.171184 -2.96729 -1.13141 69.393 -1.24727 -1.88091 101.266 18.6725 20.3845 5.20787e-006 -1.12346e-006 1.93286e-006 4.43541 0.0360091 -0.110324 -3.14184e-006 -3.70382e-006 -3.00897 8.02967 -4.95141 0.697653 -69.5658 -0.0519616 1.31142 -102.4 16.2208 -21.9548 1.59875e-006 2.23114e-006 -2.89788e-006 -1.26813 4.50855 -0.375936 9.03013e-006 5.52089e-007 3.00309 -8.03014 -4.9514 -0.697657 177.379 -2.33381 -2.8951 180 7.01526e-015 178.834 177.662 4.26568 179.583 -3.00586e-007 -2.57474e-006 0.0500162 -18.8345 67.9092 19.4431 8.14592 25.4199 -3.23408 -172.062 0.818247 -1.16369 4.54188e-006 -4.6773e-006 -1.18055 -2.29604 -10.165 0.0813121 3.15628e-006 -4.48877e-006 -0.246943 21.5502 70.9146 -22.3431 -8.13057 25.3157 3.37881 
49.9236 95.5903 15.7281 -1.76866 -1.33263 2.44554 0.459689 -1.91089 -0.0181928 0.90787 0.176299 -0.0770269 0.909181 1.82124 -0.0922408 0.568121 20.6976 -1.29573 -0.159639 -2.95394 -1.13013 69.3873 -1.23792 -1.87573 101.271 18.666 20.3819 5.20787e-006 -1.12346e-006 1.93286e-006 4.43821 0.0360572 -0.110245 -3.14184e-006 -3.70382e-006 -3.00897 8.02967 -4.95141 0.697653 -69.5634 -0.052954 1.31144 -102.405 16.2195 -21.9516 1.59875e-006 2.23114e-006 -2.89788e-006 -1.27029 4.50577 -0.375815 9.03013e-006 5.52089e-007 3.00309 -8.03014 -4.9514 -0.697657 177.379 -2.33384 -2.88873 180 7.01526e-015 178.834 177.652 4.27044 179.584 -3.00586e-007 -2.57474e-006 0.0500162 -18.8332 67.9076 19.4423 8.14652 25.4285 -3.22259 -172.059 0.825365 -1.1679 4.54188e-006 -4.6773e-006 -1.18055 -2.29812 -10.1819 0.0812201 3.15628e-006 -4.48877e-006 -0.247348 21.5623 70.9252 -22.3559 -8.1305 25.3146 3.37965 
49.9304 95.5995 15.7311 -1.76852 -1.33227 2.44474 0.459642 -1.91072 -0.0182611 0.908851 0.175584 -0.0774858 0.910159 1.82053 -0.0927159 0.55699 20.6985 -1.2922 -0.147882 -2.94035 -1.12879 69.3816 -1.22843 -1.87047 101.277 18.6594 20.3789 5.20787e-006 -1.12346e-006 1.93286e-006 4.44134 0.0361055 -0.110132 -3.14184e-006 -3.70382e-006 -3.00897 8.02967 -4.95141 0.697653 -69.561 -0.0539882 1.31148 -102.409 16.2183 -21.9485 1.59875e-006 2.23114e-006 -2.89788e-006 -1.27236 4.5026 -0.375708 9.03013e-006 5.52089e-007 3.00309 -8.03014 -4.9514 -0.697657 177.379 -2.33386 -2.88227 180 7.01526e-015 178.834 177.643 4.27529 179.585 -3.00586e-007 -2.57474e-006 0.0500162 -18.8319 67.9061 19.4414 8.14712 25.4372 -3.21089 -172.056 0.832691 -1.17222 4.54188e-006 -4.6773e-006 -1.18055 -2.30026 -10.1992 0.0811226 3.15628e-006 -4.48877e-006 -0.247759 21.5746 70.936 -22.369 -8.13042 25.3135 3.38052 
49.9248 95.5861 15.7313 -1.76839 -1.33191 2.44395 0.459594 -1.91055 -0.0183291 0.909833 0.174864 -0.077946 0.911139 1.81981 -0.0931923 0.545824 20.6994 -1.28866 -0.136071 -2.92671 -1.12744 69.3759 -1.21891 -1.86519 101.282 18.6527 20.3759 5.20787e-006 -1.12346e-006 1.93286e-006 4.44456 0.036154 -0.110011 -3.14184e-006 -3.70382e-006 -3.00897 8.02967 -4.95141 0.697653 -69.5586 -0.0550329 1.31153 -102.414 16.2171 -21.9454 1.59875e-006 2.23114e-006 -2.89788e-006 -1.27441 4.49932 -0.375606 9.03013e-006 5.52089e-007 3.00309 -8.03014 -4.9514 -0.697657 177.38 -2.33388 -2.87578 180 7.01526e-015 178.834 177.633 4.28016 179.585 -3.00586e-007 -2.57474e-006 0.0500162 -18.8306 67.9045 19.4406 8.14772 25.4459 -3.19913 -172.053 0.84007 -1.17657 4.54188e-006 -4.6773e-006 -1.18055 -2.30243 -10.2165 0.0810236 3.15628e-006 -4.48877e-006 -0.248171 21.5871 70.9469 -22.3822 -8.13035 25.3125 3.38139 
49.9226 95.5844 15.7378 -1.76825 -1.33156 2.44315 0.459549 -1.91038 -0.0183976 0.910812 0.174155 -0.0784035 0.912116 1.8191 -0.093666 0.534728 20.7003 -1.28515 -0.124369 -2.91318 -1.12611 69.3702 -1.20945 -1.85994 101.288 18.6461 20.373 5.20787e-006 -1.12346e-006 1.93286e-006 4.44762 0.0362023 -0.109906 -3.14184e-006 -3.70382e-006 -3.00897 8.02967 -4.95141 0.697653 -69.5561 -0.0560566 1.31157 -102.418 16.2158 -21.9423 1.59875e-006 2.23114e-006 -2.89788e-006 -1.27651 4.49625 -0.375496 9.03013e-006 5.52089e-007 3.00309 -8.03014 -4.9514 -0.697657 177.38 -2.33391 -2.86934 180 7.01526e-015 178.834 177.624 4.28498 179.586 -3.00586e-007 -2.57474e-006 0.0500162 -18.8293 67.903 19.4397 8.14831 25.4545 -3.18748 -172.05 0.847344 -1.18087 4.54188e-006 -4.6773e-006 -1.18055 -2.30456 -10.2337 0.0809275 3.15628e-006 -4.48877e-006 -0.24858 21.5994 70.9577 -22.3952 -8.13028 25.3114 3.38225 
49.9237 95.5845 15.7389 -1.7681 -1.33124 2.44237 0.45951 -1.91021 -0.0184674 0.911786 0.173473 -0.0788542 0.913088 1.81842 -0.0941326 0.523811 20.7012 -1.28175 -0.112933 -2.89994 -1.12486 69.3645 -1.20018 -1.8548 101.293 18.6397 20.3705 5.20787e-006 -1.12346e-006 1.93286e-006 4.45024 0.0362502 -0.109845 -3.14184e-006 -3.70382e-006 -3.00897 8.02967 -4.95141 0.697653 -69.5536 -0.057028 1.31158 -102.423 16.2144 -21.9391 1.59875e-006 2.23114e-006 -2.89788e-006 -1.27872 4.49367 -0.375367 9.03013e-006 5.52089e-007 3.00309 -8.03014 -4.9514 -0.697657 177.38 -2.33394 -2.86302 180 7.01526e-015 178.834 177.614 4.28973 179.587 -3.00586e-007 -2.57474e-006 0.0500162 -18.828 67.9015 19.4389 8.14888 25.463 -3.1761 -172.048 0.854358 -1.18503 4.54188e-006 -4.6773e-006 -1.18055 -2.3066 -10.2504 0.0808383 3.15628e-006 -4.48877e-006 -0.248983 21.6115 70.9682 -22.408 -8.13021 25.3104 3.38309 
49.922 95.5796 15.7369 -1.76792 -1.33098 2.44159 0.459481 -1.91003 -0.0185392 0.912749 0.172836 -0.0792938 0.914049 1.81778 -0.0945881 0.513179 20.7024 -1.2785 -0.101925 -2.88717 -1.12372 69.3589 -1.19121 -1.8498 101.298 18.6336 20.3688 5.20787e-006 -1.12346e-006 1.93286e-006 4.45219 0.0362975 -0.109852 -3.14184e-006 -3.70382e-006 -3.00897 8.02967 -4.95141 0.697653 -69.551 -0.0579157 1.31154 -102.427 16.2127 -21.9358 1.59875e-006 2.23114e-006 -2.89788e-006 -1.28112 4.4919 -0.375209 9.03013e-006 5.52089e-007 3.00309 -8.03014 -4.9514 -0.697657 177.381 -2.33399 -2.85689 180 7.01526e-015 178.834 177.605 4.29431 179.588 -3.00586e-007 -2.57474e-006 0.0500162 -18.8268 67.9 19.4382 8.14943 25.4711 -3.16514 -172.045 0.860953 -1.18898 4.54188e-006 -4.6773e-006 -1.18055 -2.3085 -10.2664 0.0807603 3.15628e-006 -4.48877e-006 -0.249375 21.623 70.9782 -22.4202 -8.13014 25.3094 3.38387 
49.9254 95.5856 15.7446 -1.76771 -1.33079 2.44084 0.459466 -1.90984 -0.0186139 0.9137 0.172258 -0.0797183 0.914998 1.81721 -0.0950281 0.50294 20.7037 -1.27547 -0.0915041 -2.87503 -1.12275 69.3533 -1.18264 -1.84501 101.303 18.6279 20.368 5.20787e-006 -1.12346e-006 1.93286e-006 4.45321 0.0363439 -0.109955 -3.14184e-006 -3.70382e-006 -3.00897 8.02967 -4.95141 0.697653 -69.5481 -0.0586882 1.31142 -102.432 16.2106 -21.9324 1.59875e-006 2.23114e-006 -2.89788e-006 -1.28377 4.49122 -0.375009 9.03013e-006 5.52089e-007 3.00309 -8.03014 -4.9514 -0.697657 177.381 -2.33407 -2.85101 180 7.01526e-015 178.834 177.597 4.2987 179.589 -3.00586e-007 -2.57474e-006 0.0500162 -18.8256 67.8986 19.4374 8.14995 25.4788 -3.15477 -172.043 0.866975 -1.19263 4.54188e-006 -4.6773e-006 -1.18055 -2.31022 -10.2814 0.0806976 3.15628e-006 -4.48877e-006 -0.249752 21.634 70.9877 -22.4318 -8.13008 25.3085 3.3846 
